<svg xmlns="http://www.w3.org/2000/svg
SVG namespace
http://www.w3.org/2000/svg is an XML namespace, first defined in the Scalable Vector Graphics (SVG) 1.0 Specification and subsequently added to by SVG 1.1, SVG 1.2 and SVG 2. The SVG namespace is mutable ; names may be added over time by the W3C SVG Working Group by publication in W3C Technical Rep...
www.w3.org
" width="2400" height="1350" viewBox="0 0 2400 1350">
  <defs>
    <linearGradient id="g1" x1="0" y1="0" x2="1" y2="1">
      <stop offset="0%" stop-color="#1F2A44"/>
      <stop offset="60%" stop-color="#2F3A88"/>
      <stop offset="100%" stop-color="#6826A6"/>
    </linearGradient>
    <radialGradient id="glow1" cx="20%" cy="25%" r="45%">
      <stop offset="0%" stop-color="#5EEAD4" stop-opacity="0.50"/>
      <stop offset="100%" stop-color="#5EEAD4" stop-opacity="0"/>
    </radialGradient>
    <radialGradient id="glow2" cx="80%" cy="70%" r="50%">
      <stop offset="0%" stop-color="#A78BFA" stop-opacity="0.55"/>
      <stop offset="100%" stop-color="#A78BFA" stop-opacity="0"/>
    </radialGradient>
    <pattern id="grid" width="60" height="60" patternUnits="userSpaceOnUse">
      <path d="M60 0H0V60" fill="none" stroke="rgba(255,255,255,0.06)" stroke-width="1"/>
    </pattern>
    <filter id="noise">
      <feTurbulence type="fractalNoise" baseFrequency="0.65" numOctaves="2" stitchTiles="stitch"/>
      <feColorMatrix type="saturate" values="0"/>
      <feComponentTransfer>
        <feFuncA type="linear" slope="0.05"/>
      </feComponentTransfer>
    </filter>
  </defs>
  <rect width="100%" height="100%" fill="url(#g1)"/>
  <rect width="100%" height="100%" fill="url(#glow1)"/>
  <rect width="100%" height="100%" fill="url(#glow2)"/>
  <rect width="100%" height="100%" fill="url(#grid)"/>
  <rect width="100%" height="100%" filter="url(#noise)" opacity="0.35"/>
  <!-- 심볼 (AI/진로 아이콘 느낌의 점/노드) -->
  <g fill="#ffffff" opacity="0.6">
    <circle cx="320" cy="260" r="2.2"/><circle cx="520" cy="420" r="1.8"/><circle cx="880" cy="300" r="2.0"/>
    <circle cx="1180" cy="180" r="2.6"/><circle cx="1580" cy="340" r="2.0"/><circle cx="1900" cy="260" r="2.4"/>
    <circle cx="2100" cy="520" r="2.0"/><circle cx="1850" cy="720" r="2.2"/><circle cx="1500" cy="900" r="2.2"/>
    <circle cx="1180" cy="1020" r="2.6"/><circle cx="820" cy="920" r="2.0"/><circle cx="480" cy="760" r="2.2"/>
  </g>
</svg>